PathFileType	4	(X/Y/Z)	/Users/itak/Documents/Research/Walk-IL/dataset/trc/00475_00167.trc
DataRate	CameraRate	NumFrames	NumMarkers	Units	OrigDataRate	OrigDataStartFrame	OrigNumFrames
100.000000	100.000000	4	53	mm	100.000000	407	543
Frame#	Time	RPSI			LPSI			L3			STRN			T10			C7			CLAV			RBAK			LBAK			LSHO			LUPA			LAEL			LAOL			LWPS			LFRA			LIFD			LHPS			LHTS			RSHO			RUPA			RAEL			RAOL			RWTS			RWPS			RFRA			RIFD			RHTS			RHPS			RBHD			LFHD			RFHD			LBHD			LHIP			RHIP			RASI			LASI			LKNE			LTHI			LANK			LTIP			LTOE			LMT1			LMT5			LHEE			RKNE			RTHI			RANK			RTIP			RTOE			RMT1			RMT5			RHEE			LWTS			
		X1	Y1	Z1	X2	Y2	Z2	X3	Y3	Z3	X4	Y4	Z4	X5	Y5	Z5	X6	Y6	Z6	X7	Y7	Z7	X8	Y8	Z8	X9	Y9	Z9	X10	Y10	Z10	X11	Y11	Z11	X12	Y12	Z12	X13	Y13	Z13	X14	Y14	Z14	X15	Y15	Z15	X16	Y16	Z16	X17	Y17	Z17	X18	Y18	Z18	X19	Y19	Z19	X20	Y20	Z20	X21	Y21	Z21	X22	Y22	Z22	X23	Y23	Z23	X24	Y24	Z24	X25	Y25	Z25	X26	Y26	Z26	X27	Y27	Z27	X28	Y28	Z28	X29	Y29	Z29	X30	Y30	Z30	X31	Y31	Z31	X32	Y32	Z32	X33	Y33	Z33	X34	Y34	Z34	X35	Y35	Z35	X36	Y36	Z36	X37	Y37	Z37	X38	Y38	Z38	X39	Y39	Z39	X40	Y40	Z40	X41	Y41	Z41	X42	Y42	Z42	X43	Y43	Z43	X44	Y44	Z44	X45	Y45	Z45	X46	Y46	Z46	X47	Y47	Z47	X48	Y48	Z48	X49	Y49	Z49	X50	Y50	Z50	X51	Y51	Z51	X52	Y52	Z52	X53	Y53	Z53	

408	4.07	-135.1328735351562	943.2671508789062	-569.88623046875	-132.8082885742188	929.570068359375	-428.0291442871094	-149.2405548095703	1041.251342773438	-529.7421264648438	-426.5960083007812	1229.623779296875	-492.1087951660156	-142.3599243164062	1165.8798828125	-537.4600219726562	-220.1478424072266	1432.40234375	-546.4068603515625	-393.5608520507812	1344.237182617188	-495.6055908203125	-172.3982696533203	1311.737426757812	-649.8665161132812	-165.6464691162109	1387.85888671875	-454.2532653808594	-252.1442565917969	1408.560913085938	-357.2178649902344	-219.7436981201172	1293.914428710938	-259.9742126464844	-231.6742858886719	1078.323852539062	-217.7924957275391	-165.6165618896484	1061.476196289062	-294.7821350097656	-280.5897521972656	866.6087646484375	-201.2077941894531	-257.9620971679688	992.1209716796875	-205.0819091796875	-353.3641967773438	727.869873046875	-226.6952972412109	-294.7570190429688	792.7911987304688	-194.0236358642578	-356.6916198730469	803.2966918945312	-231.2681884765625	-315.101318359375	1397.714477539062	-688.5953369140625	-316.4861755371094	1337.4306640625	-765.9124145507812	-359.3667602539062	1053.081909179688	-821.6810913085938	-303.3586730957031	1027.576416015625	-795.2803344726562	-479.3084716796875	868.5064086914062	-742.8245849609375	-436.1750183105469	842.5655517578125	-814.962158203125	-375.6343994140625	995.1937866210938	-827.7263793945312	-516.6597290039062	717.2984619140625	-747.2196044921875	-517.1712036132812	777.7046508789062	-747.4057006835938	-468.7425842285156	761.2102661132812	-806.2061767578125	-367.5169067382812	1623.80712890625	-608.8825073242188	-463.3439331054688	1604.751586914062	-427.5443420410156	-492.4412536621094	1603.407958984375	-554.7467651367188	-314.0579833984375	1634.878662109375	-440.2188110351562	-284.1017456054688	841.6701049804688	-307.3294982910156	-249.7540893554688	844.4722290039062	-708.6216430664062	-356.7890319824219	881.4447021484375	-644.267578125	-368.0608520507812	888.0177612304688	-392.60400390625	-471.5248413085938	464.2767944335938	-330.9292297363281	-426.4739990234375	609.5086669921875	-311.4637756347656	-549.5661010742188	55.07796859741211	-311.6383972167969	-515.4085693359375	325.5794067382812	-310.5422058105469	-756.905517578125	136.5856781005859	-395.2952270507812	-686.601318359375	110.0800323486328	-420.4873962402344	-688.1923828125	111.9817352294922	-309.8782958984375	-502.5824890136719	41.1811637878418	-372.3936767578125	-224.7116851806641	454.8804626464844	-651.9573364257812	-280.9704284667969	708.2509155273438	-702.046875	-103.9005126953125	45.4149284362793	-628.9529418945312	-202.7066192626953	309.5296936035156	-651.1236572265625	-312.8160705566406	45.05260467529297	-559.0018310546875	-246.6723327636719	45.80045700073242	-532.3280029296875	-237.8424835205078	45.2651252746582	-640.5548095703125	-35.37944030761719	41.97299575805664	-589.3296508789062	-334.8398742675781	885.168212890625	-249.2735137939453	
409	4.08	-142.8409271240234	941.8323364257812	-568.07421875	-141.4348602294922	927.9126586914062	-426.265869140625	-156.9099884033203	1039.641845703125	-527.9786376953125	-433.8243103027344	1228.535766601562	-491.4365234375	-149.4639434814453	1164.256103515625	-535.3883666992188	-226.6912231445312	1431.019897460938	-544.05908203125	-400.3857116699219	1343.004028320312	-494.4795227050781	-178.4681854248047	1310.545043945312	-647.5310668945312	-172.7687225341797	1386.076782226562	-451.7246704101562	-259.7338562011719	1406.640625	-355.0356140136719	-227.9127807617188	1291.585083007812	-258.0598449707031	-240.0434875488281	1075.794067382812	-216.7214660644531	-173.6920623779297	1059.319702148438	-293.5900573730469	-287.7779846191406	863.7403564453125	-200.8049926757812	-265.9043273925781	989.40185546875	-204.3265533447266	-359.3203125	724.4841918945312	-227.0116271972656	-301.3688049316406	789.7408447265625	-193.9996795654297	-363.2319641113281	799.8710327148438	-231.3808898925781	-320.7961730957031	1396.906860351562	-686.9905395507812	-321.6365661621094	1336.767578125	-764.4661865234375	-363.9229431152344	1052.318359375	-820.9517822265625	-307.8004455566406	1027.199584960938	-794.23828125	-482.6427917480469	866.1723022460938	-744.2000122070312	-438.5534362792969	841.2457885742188	-816.1912841796875	-379.5635681152344	994.4407958984375	-827.4716186523438	-518.2937622070312	714.6239624023438	-749.8798828125	-519.5135498046875	775.0134887695312	-749.6090698242188	-470.3418579101562	759.4224853515625	-808.1690673828125	-373.9258117675781	1622.68505859375	-606.9181518554688	-470.0358581542969	1603.394653320312	-425.7377014160156	-498.9729919433594	1602.189453125	-552.960205078125	-320.7273254394531	1633.5380859375	-438.1589660644531	-293.8114013671875	840.3867797851562	-306.698486328125	-256.4057312011719	843.5315551757812	-708.0090942382812	-363.9981079101562	880.2158813476562	-644.0960083007812	-377.051513671875	886.7682495117188	-392.5365600585938	-481.1904907226562	463.479248046875	-330.7661437988281	-435.9327392578125	608.1466674804688	-311.3009033203125	-565.0785522460938	55.9072380065918	-310.4264221191406	-527.2305908203125	326.0107727050781	-310.277099609375	-770.3724975585938	138.9879150390625	-397.78369140625	-700.0008544921875	111.602668762207	-421.6503295898438	-703.1986694335938	114.3227462768555	-311.1065063476562	-517.3743286132812	41.06781387329102	-370.4254760742188	-229.4942626953125	454.2075500488281	-651.401123046875	-287.3764038085938	706.992431640625	-701.4686279296875	-103.9546661376953	45.80992889404297	-628.5481567382812	-205.8692626953125	309.0412292480469	-650.6077880859375	-313.1783142089844	44.91840744018555	-559.1564331054688	-246.8885040283203	45.72948455810547	-532.3309936523438	-237.8079528808594	45.31594848632812	-640.488525390625	-35.52841186523438	42.80132675170898	-588.6395263671875	-341.9865112304688	882.0234375	-248.9827117919922	
410	4.09	-150.6502227783203	940.4407348632812	-566.1431884765625	-150.1484069824219	926.307861328125	-424.3853759765625	-164.6980438232422	1038.038818359375	-526.0966796875	-441.140869140625	1227.467529296875	-490.6453857421875	-156.6797943115234	1162.629272460938	-533.224365234375	-233.3144683837891	1429.638671875	-541.6128540039062	-407.290283203125	1341.76806640625	-493.2556457519531	-184.6294555664062	1309.348388671875	-645.0775146484375	-179.9692687988281	1384.299560546875	-449.1067504882812	-267.38720703125	1404.736694335938	-352.7671203613281	-236.112060546875	1289.248046875	-256.0754699707031	-248.4071502685547	1073.264526367188	-215.6112823486328	-181.7825622558594	1057.170043945312	-292.3706665039062	-294.9197387695312	860.8750610351562	-200.3730621337891	-273.8341979980469	986.6858520507812	-203.5312042236328	-365.1888122558594	721.0877685546875	-227.2963256835938	-307.9180603027344	786.7000732421875	-193.9241180419922	-369.7106628417969	796.440673828125	-231.4525299072266	-326.5531921386719	1396.11181640625	-685.2779541015625	-326.7718200683594	1336.13134765625	-762.9370727539062	-368.3639221191406	1051.566528320312	-820.1428833007812	-312.1306762695312	1026.828857421875	-793.1012573242188	-485.8350830078125	863.864990234375	-745.5892944335938	-440.7222595214844	839.96337890625	-817.4013671875	-383.3477783203125	993.70751953125	-827.1644897460938	-519.7482299804688	711.990478515625	-752.5519409179688	-521.6935424804688	772.3500366210938	-751.83203125	-471.731689453125	757.6895141601562	-810.1326904296875	-380.299072265625	1621.593383789062	-604.898681640625	-476.7713623046875	1602.107666015625	-423.8553466796875	-505.5337829589844	1601.024291992188	-551.1077270507812	-327.4317321777344	1632.219482421875	-436.0162048339844	-303.595703125	839.1087646484375	-305.9727172851562	-263.2079162597656	842.5416259765625	-707.2194213867188	-371.2852783203125	878.9827270507812	-643.78271484375	-386.0836181640625	885.510498046875	-392.3505249023438	-490.8623352050781	462.5776672363281	-330.5306091308594	-445.5432739257812	606.8269653320312	-311.08154296875	-578.35986328125	56.09398651123047	-309.5811157226562	-538.26806640625	325.9201965332031	-309.9878845214844	-782.2677001953125	139.9017944335938	-399.485595703125	-711.9109497070312	111.964241027832	-422.4161682128906	-716.15576171875	115.3651275634766	-311.9490661621094	-530.1248168945312	40.6597785949707	-369.0121765136719	-234.5024719238281	453.519775390625	-650.7748413085938	-293.955322265625	705.7086791992188	-700.7425537109375	-104.0156173706055	46.23442459106445	-628.0953979492188	-209.1901245117188	308.5636596679688	-650.03857421875	-313.5320739746094	44.78474807739258	-559.3026733398438	-247.1201019287109	45.66736221313477	-532.3013305664062	-237.7747039794922	45.37049865722656	-640.411865234375	-35.70491027832031	43.75957107543945	-587.9249877929688	-349.1122436523438	878.8724365234375	-248.6682739257812	
411	4.1	-158.5603332519531	939.1165161132812	-564.0796508789062	-158.9549255371094	924.7623901367188	-422.3802490234375	-172.6011962890625	1036.451538085938	-524.0863647460938	-448.5469665527344	1226.4248046875	-489.736328125	-164.0202178955078	1161.008422851562	-530.959716796875	-240.0220947265625	1428.268432617188	-539.0667114257812	-414.3026428222656	1340.548828125	-491.9149780273438	-190.8945007324219	1308.156372070312	-642.507080078125	-187.2517395019531	1382.539672851562	-446.3996276855469	-275.1052856445312	1402.862915039062	-350.4135437011719	-244.3495941162109	1286.91748046875	-254.0187530517578	-256.7726135253906	1070.750732421875	-214.4594268798828	-189.8910522460938	1055.048950195312	-291.12451171875	-302.02685546875	858.0317993164062	-199.9073944091797	-281.7603149414062	983.99169921875	-202.6941223144531	-370.9833679199219	717.70703125	-227.5330200195312	-314.4186706542969	783.6930541992188	-193.781494140625	-376.1380920410156	793.0316162109375	-231.4780120849609	-332.39404296875	1395.327758789062	-683.4459838867188	-331.9252014160156	1335.525268554688	-761.3052368164062	-372.6849975585938	1050.842407226562	-819.2603149414062	-316.3530883789062	1026.478271484375	-791.865966796875	-488.8866577148438	861.60400390625	-746.978271484375	-442.7137451171875	838.7257690429688	-818.5733642578125	-386.991943359375	993.0072631835938	-826.8011474609375	-521.0392456054688	709.42138671875	-755.2120361328125	-523.7138671875	769.7334594726562	-754.0630493164062	-472.9333801269531	756.0275268554688	-812.0748291015625	-386.6344604492188	1620.541381835938	-602.8218994140625	-483.5524291992188	1600.8984375	-421.8944702148438	-512.1217651367188	1599.92333984375	-549.184326171875	-334.1772766113281	1630.927734375	-433.7816772460938	-313.4451599121094	837.8282470703125	-305.1520690917969	-270.1457214355469	841.5227661132812	-706.2381591796875	-378.6574096679688	877.7633666992188	-643.3310546875	-395.1619873046875	884.2395629882812	-392.0436096191406	-500.5453186035156	461.5415954589844	-330.2406921386719	-455.2860717773438	605.5444946289062	-310.8298645019531	-589.4155883789062	55.57832336425781	-309.02099609375	-548.5513305664062	325.2512817382812	-309.687255859375	-792.6209106445312	139.24755859375	-400.4543762207031	-722.3213500976562	111.1065826416016	-422.8153686523438	-727.10791015625	115.0387268066406	-312.413818359375	-540.7974243164062	39.89655303955078	-368.0602111816406	-239.7360992431641	452.8274230957031	-650.08984375	-300.61279296875	704.4763793945312	-699.895751953125	-104.1001892089844	46.71228408813477	-627.6398315429688	-212.6687622070312	308.1117248535156	-649.4488525390625	-313.8530578613281	44.65458679199219	-559.4299926757812	-247.3659210205078	45.62240982055664	-532.2457885742188	-237.7472076416016	45.41894912719727	-640.3292236328125	-35.91304016113281	44.8840446472168	-587.2392578125	-356.2153015136719	875.7297973632812	-248.3358612060547	
